<svg xmlns="http://www.w3.org/2000/svg" xmlns:xlink="http://www.w3.org/1999/xlink" width="60" zoomAndPan="magnify" viewBox="0 0 525 225" height="50" preserveAspectRatio="xMidYMid meet" version="1.0"><defs><g/></defs><g fill="#ffffff" fill-opacity="1"><g transform="translate(-10.282024, 219.115792)"><g><path d="M 185.523438 -6.191406 C 162.828125 -12.945312 172.582031 -88.355469 172.582031 -103.734375 C 172.582031 -110.300781 148.382812 -112.175781 137.5 -112.175781 C 126.246094 -112.175781 104.675781 -110.113281 104.675781 -101.859375 C 104.675781 -98.484375 108.613281 -97.359375 111.425781 -97.359375 C 112.742188 -97.359375 113.679688 -97.546875 114.429688 -97.734375 C 120.429688 -99.609375 126.808594 -100.359375 133.1875 -100.359375 C 141.441406 -100.359375 149.695312 -99.609375 157.574219 -97.921875 C 156.449219 -78.597656 156.449219 -60.589844 157.386719 -43.144531 C 149.132812 -24.011719 128.683594 -7.691406 107.488281 -7.691406 C 106.175781 -7.691406 105.050781 -7.691406 103.734375 -7.878906 C 56.277344 -12.378906 35.265625 -62.277344 35.265625 -102.609375 C 35.265625 -146.132812 61.152344 -192.839844 108.050781 -192.839844 C 123.433594 -192.839844 139.003906 -187.023438 151.945312 -177.457031 C 152.882812 -176.707031 154.386719 -176.144531 156.074219 -176.144531 C 160.761719 -176.144531 166.578125 -179.710938 166.578125 -183.273438 C 166.578125 -184.398438 165.828125 -185.710938 164.515625 -186.835938 C 148.570312 -198.28125 129.8125 -204.472656 110.675781 -204.472656 C 50.835938 -204.472656 18.570312 -150.820312 18.570312 -100.734375 C 18.570312 -51.023438 47.460938 3.9375 102.421875 3.9375 C 122.683594 3.9375 152.132812 -6.566406 160.011719 -26.074219 C 162.074219 -9.566406 170.703125 1.875 181.960938 1.875 C 185.148438 1.875 194.152344 0.75 194.152344 -5.253906 C 194.152344 -6.566406 193.402344 -6.753906 192.277344 -6.753906 C 190.589844 -6.753906 188.152344 -6.003906 186.460938 -6.003906 C 186.085938 -6.003906 185.898438 -6.191406 185.523438 -6.191406 Z M 185.523438 -6.191406 "/></g></g></g><g fill="#ffffff" fill-opacity="1"><g transform="translate(165.143808, 219.115792)"><g><path d="M 90.417969 -204.472656 C 71.472656 -204.472656 44.832031 -198.09375 29.074219 -186.460938 C 26.261719 -184.398438 25.511719 -182.335938 25.699219 -179.898438 C 28.886719 -154.195312 28.699219 -128.871094 28.699219 -103.359375 C 28.699219 -82.351562 27.761719 -57.027344 25.511719 -36.203125 C 25.511719 -33.578125 16.507812 -32.640625 16.507812 -28.324219 C 16.507812 -27.574219 16.882812 -26.824219 17.632812 -26.074219 C 34.890625 -5.628906 67.71875 2.25 94.355469 2.25 C 148.382812 2.25 177.832031 -44.832031 177.832031 -101.671875 C 177.832031 -156.636719 147.070312 -204.472656 90.417969 -204.472656 Z M 98.484375 -8.628906 C 79.160156 -8.628906 54.402344 -12.570312 40.707031 -24.761719 C 44.082031 -50.085938 45.582031 -80.101562 45.582031 -105.800781 C 45.582031 -130.9375 44.082031 -156.449219 42.019531 -181.398438 C 52.335938 -188.339844 72.222656 -193.589844 86.851562 -193.589844 C 139.566406 -193.589844 161.324219 -141.816406 161.324219 -99.984375 C 161.324219 -60.402344 144.441406 -8.628906 98.484375 -8.628906 Z M 98.484375 -8.628906 "/></g></g></g><g fill="#ffffff" fill-opacity="1"><g transform="translate(338.881339, 219.115792)"><g><path d="M 90.417969 -204.472656 C 71.472656 -204.472656 44.832031 -198.09375 29.074219 -186.460938 C 26.261719 -184.398438 25.511719 -182.335938 25.699219 -179.898438 C 28.886719 -154.195312 28.699219 -128.871094 28.699219 -103.359375 C 28.699219 -82.351562 27.761719 -57.027344 25.511719 -36.203125 C 25.511719 -33.578125 16.507812 -32.640625 16.507812 -28.324219 C 16.507812 -27.574219 16.882812 -26.824219 17.632812 -26.074219 C 34.890625 -5.628906 67.71875 2.25 94.355469 2.25 C 148.382812 2.25 177.832031 -44.832031 177.832031 -101.671875 C 177.832031 -156.636719 147.070312 -204.472656 90.417969 -204.472656 Z M 98.484375 -8.628906 C 79.160156 -8.628906 54.402344 -12.570312 40.707031 -24.761719 C 44.082031 -50.085938 45.582031 -80.101562 45.582031 -105.800781 C 45.582031 -130.9375 44.082031 -156.449219 42.019531 -181.398438 C 52.335938 -188.339844 72.222656 -193.589844 86.851562 -193.589844 C 139.566406 -193.589844 161.324219 -141.816406 161.324219 -99.984375 C 161.324219 -60.402344 144.441406 -8.628906 98.484375 -8.628906 Z M 98.484375 -8.628906 "/></g></g></g></svg>