<svg xmlns="http://www.w3.org/2000/svg" xmlns:xlink="http://www.w3.org/1999/xlink" width="120" zoomAndPan="magnify" viewBox="0 0 525 225" height="50" preserveAspectRatio="xMidYMid meet" version="1.0"><defs><g/></defs><g fill="#000000" fill-opacity="1"><g transform="translate(-10.283386, 219.653072)"><g><path d="M 185.527344 -6.191406 C 162.828125 -12.945312 172.582031 -88.355469 172.582031 -103.738281 C 172.582031 -110.300781 148.382812 -112.179688 137.503906 -112.179688 C 126.246094 -112.179688 104.675781 -110.113281 104.675781 -101.859375 C 104.675781 -98.484375 108.613281 -97.359375 111.429688 -97.359375 C 112.742188 -97.359375 113.679688 -97.546875 114.429688 -97.734375 C 120.433594 -99.609375 126.808594 -100.359375 133.1875 -100.359375 C 141.441406 -100.359375 149.695312 -99.609375 157.574219 -97.921875 C 156.449219 -78.601562 156.449219 -60.589844 157.386719 -43.144531 C 149.132812 -24.011719 128.6875 -7.691406 107.488281 -7.691406 C 106.175781 -7.691406 105.050781 -7.691406 103.738281 -7.878906 C 56.277344 -12.382812 35.265625 -62.28125 35.265625 -102.609375 C 35.265625 -146.132812 61.152344 -192.839844 108.050781 -192.839844 C 123.433594 -192.839844 139.003906 -187.027344 151.949219 -177.460938 C 152.886719 -176.710938 154.386719 -176.144531 156.074219 -176.144531 C 160.765625 -176.144531 166.578125 -179.710938 166.578125 -183.273438 C 166.578125 -184.398438 165.828125 -185.714844 164.515625 -186.839844 C 148.570312 -198.28125 129.8125 -204.472656 110.675781 -204.472656 C 50.835938 -204.472656 18.570312 -150.820312 18.570312 -100.734375 C 18.570312 -51.023438 47.460938 3.9375 102.421875 3.9375 C 122.683594 3.9375 152.136719 -6.566406 160.011719 -26.074219 C 162.078125 -9.566406 170.707031 1.875 181.960938 1.875 C 185.152344 1.875 194.15625 0.75 194.15625 -5.253906 C 194.15625 -6.566406 193.40625 -6.753906 192.277344 -6.753906 C 190.589844 -6.753906 188.152344 -6.003906 186.464844 -6.003906 C 186.089844 -6.003906 185.902344 -6.191406 185.527344 -6.191406 Z M 185.527344 -6.191406 "/></g></g></g><g fill="#000000" fill-opacity="1"><g transform="translate(165.142419, 219.653072)"><g><path d="M 90.417969 -204.472656 C 71.472656 -204.472656 44.832031 -198.09375 29.078125 -186.464844 C 26.261719 -184.398438 25.511719 -182.335938 25.699219 -179.898438 C 28.890625 -154.199219 28.699219 -128.875 28.699219 -103.363281 C 28.699219 -82.351562 27.761719 -57.027344 25.511719 -36.203125 C 25.511719 -33.578125 16.507812 -32.640625 16.507812 -28.324219 C 16.507812 -27.574219 16.882812 -26.824219 17.632812 -26.074219 C 34.890625 -5.628906 67.71875 2.25 94.355469 2.25 C 148.382812 2.25 177.835938 -44.832031 177.835938 -101.671875 C 177.835938 -156.636719 147.070312 -204.472656 90.417969 -204.472656 Z M 98.484375 -8.628906 C 79.164062 -8.628906 54.402344 -12.570312 40.707031 -24.761719 C 44.082031 -50.085938 45.585938 -80.101562 45.585938 -105.800781 C 45.585938 -130.9375 44.082031 -156.449219 42.019531 -181.398438 C 52.335938 -188.339844 72.222656 -193.59375 86.855469 -193.59375 C 139.566406 -193.59375 161.328125 -141.816406 161.328125 -99.984375 C 161.328125 -60.402344 144.445312 -8.628906 98.484375 -8.628906 Z M 98.484375 -8.628906 "/></g></g></g><g fill="#000000" fill-opacity="1"><g transform="translate(338.879946, 219.653072)"><g><path d="M 90.417969 -204.472656 C 71.472656 -204.472656 44.832031 -198.09375 29.078125 -186.464844 C 26.261719 -184.398438 25.511719 -182.335938 25.699219 -179.898438 C 28.890625 -154.199219 28.699219 -128.875 28.699219 -103.363281 C 28.699219 -82.351562 27.761719 -57.027344 25.511719 -36.203125 C 25.511719 -33.578125 16.507812 -32.640625 16.507812 -28.324219 C 16.507812 -27.574219 16.882812 -26.824219 17.632812 -26.074219 C 34.890625 -5.628906 67.71875 2.25 94.355469 2.25 C 148.382812 2.25 177.835938 -44.832031 177.835938 -101.671875 C 177.835938 -156.636719 147.070312 -204.472656 90.417969 -204.472656 Z M 98.484375 -8.628906 C 79.164062 -8.628906 54.402344 -12.570312 40.707031 -24.761719 C 44.082031 -50.085938 45.585938 -80.101562 45.585938 -105.800781 C 45.585938 -130.9375 44.082031 -156.449219 42.019531 -181.398438 C 52.335938 -188.339844 72.222656 -193.59375 86.855469 -193.59375 C 139.566406 -193.59375 161.328125 -141.816406 161.328125 -99.984375 C 161.328125 -60.402344 144.445312 -8.628906 98.484375 -8.628906 Z M 98.484375 -8.628906 "/></g></g></g></svg>